<?xml version="1.0" standalone="no"?>
<!DOCTYPE svg PUBLIC "-//W3C//DTD SVG 20010904//EN"
 "http://www.w3.org/TR/2001/REC-SVG-20010904/DTD/svg10.dtd">
<svg version="1.0" xmlns="http://www.w3.org/2000/svg"
 width="500.000000pt" height="500.000000pt" viewBox="0 0 500.000000 500.000000"
 preserveAspectRatio="xMidYMid meet">
<metadata>
Created by potrace 1.11, written by Peter Selinger 2001-2013
</metadata>
<g transform="translate(0.000000,500.000000) scale(0.100000,-0.100000)"
fill="#000000" stroke="none">
<path d="M2330 4994 c-19 -2 -78 -9 -130 -14 -282 -31 -586 -125 -850 -262
-602 -313 -1065 -875 -1249 -1518 -71 -248 -95 -430 -95 -705 0 -212 9 -308
45 -490 165 -823 747 -1520 1529 -1829 304 -120 577 -170 920 -170 217 0 311
8 495 45 648 130 1219 515 1590 1074 211 316 339 663 397 1070 21 149 16 503
-10 670 -85 549 -320 1013 -707 1401 -395 395 -896 642 -1455 714 -89 12 -419
21 -480 14z m-316 -1064 c50 -6 121 -18 158 -26 l68 -16 0 -120 0 -121 -42 7
c-156 25 -357 24 -444 -2 -136 -42 -186 -136 -214 -407 -17 -168 -24 -942 -11
-1222 20 -438 63 -566 207 -618 68 -24 328 -32 437 -12 l78 13 -3 -120 -3
-121 -70 -18 c-105 -28 -375 -35 -486 -12 -261 52 -367 199 -414 570 -44 357
-47 1193 -4 1590 34 326 120 502 279 577 117 55 295 77 464 58z m1361 0 c129
-11 250 -31 333 -55 l52 -16 0 -120 0 -121 -25 6 c-100 25 -305 48 -430 48
-230 -1 -341 -34 -395 -119 -67 -104 -94 -250 -111 -593 -13 -256 -6 -929 11
-1110 28 -291 85 -409 221 -456 44 -15 83 -19 204 -19 87 0 174 6 208 13 l57
13 0 480 0 479 -165 0 -165 0 0 130 0 130 295 0 295 0 -2 -717 -3 -718 -80
-17 c-241 -51 -589 -63 -730 -24 -245 68 -350 229 -399 616 -47 376 -48 1152
-1 1525 41 323 130 503 285 578 131 63 314 86 545 67z"/>
</g>
</svg>
